<?xml version="1.0" encoding="UTF-8"?>
<!DOCTYPE svg PUBLIC "-//W3C//DTD SVG 1.1//EN" "http://www.w3.org/Graphics/SVG/1.1/DTD/svg11.dtd">
<svg xmlns="http://www.w3.org/2000/svg" version="1.1" width="1280px" height="720px" style="shape-rendering:geometricPrecision; text-rendering:geometricPrecision; image-rendering:optimizeQuality; fill-rule:evenodd; clip-rule:evenodd" xmlns:xlink="http://www.w3.org/1999/xlink">
<g><path style="opacity:1" fill="#02de5c" d="M 656.5,470.5 C 658.213,469.365 658.88,467.698 658.5,465.5C 658.5,465.167 658.5,464.833 658.5,464.5C 660.213,463.365 660.88,461.698 660.5,459.5C 664.304,447.421 668.304,435.421 672.5,423.5C 674.213,422.365 674.88,420.698 674.5,418.5C 674.5,418.167 674.5,417.833 674.5,417.5C 676.213,416.365 676.88,414.698 676.5,412.5C 678.774,404.678 681.44,397.012 684.5,389.5C 685.906,389.027 686.573,388.027 686.5,386.5C 687.568,385.566 688.901,385.232 690.5,385.5C 690.427,387.027 691.094,388.027 692.5,388.5C 692.831,437.072 692.497,485.572 691.5,534C 642.834,534.5 594.168,534.667 545.5,534.5C 544.597,531.609 544.264,528.609 544.5,525.5C 545.367,519.701 546.7,514.034 548.5,508.5C 550.074,506.898 550.741,504.898 550.5,502.5C 551.898,494.24 553.898,486.24 556.5,478.5C 557.924,476.485 558.59,474.152 558.5,471.5C 559.898,463.24 561.898,455.24 564.5,447.5C 565.924,445.485 566.59,443.152 566.5,440.5C 568.034,432.033 570.034,423.7 572.5,415.5C 574.074,413.898 574.741,411.898 574.5,409.5C 575.232,403.906 576.565,398.573 578.5,393.5C 580.04,391.162 580.706,388.495 580.5,385.5C 581.924,383.485 582.59,381.152 582.5,378.5C 583.7,371.367 585.367,364.367 587.5,357.5C 589.074,355.898 589.741,353.898 589.5,351.5C 591.034,343.033 593.034,334.7 595.5,326.5C 597.074,324.898 597.741,322.898 597.5,320.5C 598.898,312.24 600.898,304.24 603.5,296.5C 604.924,294.485 605.59,292.152 605.5,289.5C 606.898,281.24 608.898,273.24 611.5,265.5C 612.924,263.485 613.59,261.152 613.5,258.5C 614.232,252.906 615.565,247.573 617.5,242.5C 619.04,240.162 619.706,237.495 619.5,234.5C 620.924,232.485 621.59,230.152 621.5,227.5C 623.034,219.033 625.034,210.7 627.5,202.5C 629.074,200.898 629.741,198.898 629.5,196.5C 630.898,188.24 632.898,180.24 635.5,172.5C 636.924,170.485 637.59,168.152 637.5,165.5C 639.167,157.5 640.833,149.5 642.5,141.5C 629.163,141.333 615.829,141.5 602.5,142C 598.909,142.579 596.076,144.412 594,147.5C 581.802,183.76 569.802,220.093 558,256.5C 556.778,261.084 553.944,263.25 549.5,263C 548.107,261.829 547.273,260.329 547,258.5C 546.333,211.167 546.333,163.833 547,116.5C 548.171,115.107 549.671,114.273 551.5,114C 596.833,113.333 642.167,113.333 687.5,114C 689.91,114.758 690.91,116.425 690.5,119C 657.42,248.154 624.42,377.32 591.5,506.5C 605.504,506.667 619.504,506.5 633.5,506C 639.927,506.659 644.427,504.159 647,498.5C 650.077,489.101 653.244,479.768 656.5,470.5 Z"/></g>
<g><path style="opacity:0.973" fill="#0ac879" d="M 637.5,165.5 C 637.59,168.152 636.924,170.485 635.5,172.5C 635.41,169.848 636.076,167.515 637.5,165.5 Z"/></g>
<g><path style="opacity:1" fill="#0cc776" d="M 629.5,196.5 C 629.741,198.898 629.074,200.898 627.5,202.5C 627.595,200.214 628.262,198.214 629.5,196.5 Z"/></g>
<g><path style="opacity:0.976" fill="#0ac979" d="M 621.5,227.5 C 621.59,230.152 620.924,232.485 619.5,234.5C 619.41,231.848 620.076,229.515 621.5,227.5 Z"/></g>
<g><path style="opacity:1" fill="#0ec974" d="M 619.5,234.5 C 619.706,237.495 619.04,240.162 617.5,242.5C 617.565,239.572 618.232,236.905 619.5,234.5 Z"/></g>
<g><path style="opacity:0.976" fill="#0ac979" d="M 613.5,258.5 C 613.59,261.152 612.924,263.485 611.5,265.5C 611.41,262.848 612.076,260.515 613.5,258.5 Z"/></g>
<g><path style="opacity:0.976" fill="#0ac978" d="M 605.5,289.5 C 605.59,292.152 604.924,294.485 603.5,296.5C 603.41,293.848 604.076,291.515 605.5,289.5 Z"/></g>
<g><path style="opacity:1" fill="#0cc875" d="M 597.5,320.5 C 597.741,322.898 597.074,324.898 595.5,326.5C 595.595,324.214 596.262,322.214 597.5,320.5 Z"/></g>
<g><path style="opacity:1" fill="#0cc875" d="M 589.5,351.5 C 589.741,353.898 589.074,355.898 587.5,357.5C 587.595,355.214 588.262,353.214 589.5,351.5 Z"/></g>
<g><path style="opacity:0.973" fill="#09c879" d="M 582.5,378.5 C 582.59,381.152 581.924,383.485 580.5,385.5C 580.41,382.848 581.076,380.515 582.5,378.5 Z"/></g>
<g><path style="opacity:0.624" fill="#10b979" d="M 690.5,385.5 C 691.906,385.973 692.573,386.973 692.5,388.5C 691.094,388.027 690.427,387.027 690.5,385.5 Z"/></g>
<g><path style="opacity:0.722" fill="#11bb7a" d="M 686.5,386.5 C 686.573,388.027 685.906,389.027 684.5,389.5C 684.427,387.973 685.094,386.973 686.5,386.5 Z"/></g>
<g><path style="opacity:1" fill="#10c974" d="M 580.5,385.5 C 580.706,388.495 580.04,391.162 578.5,393.5C 578.565,390.572 579.232,387.905 580.5,385.5 Z"/></g>
<g><path style="opacity:1" fill="#0cc776" d="M 574.5,409.5 C 574.741,411.898 574.074,413.898 572.5,415.5C 572.595,413.214 573.262,411.214 574.5,409.5 Z"/></g>
<g><path style="opacity:1" fill="#11c476" d="M 676.5,412.5 C 676.88,414.698 676.213,416.365 674.5,417.5C 674.796,415.597 675.463,413.93 676.5,412.5 Z"/></g>
<g><path style="opacity:1" fill="#12c575" d="M 674.5,418.5 C 674.88,420.698 674.213,422.365 672.5,423.5C 672.796,421.597 673.463,419.93 674.5,418.5 Z"/></g>
<g><path style="opacity:0.973" fill="#0ac879" d="M 566.5,440.5 C 566.59,443.152 565.924,445.485 564.5,447.5C 564.41,444.848 565.076,442.515 566.5,440.5 Z"/></g>
<g><path style="opacity:1" fill="#11c476" d="M 660.5,459.5 C 660.88,461.698 660.213,463.365 658.5,464.5C 658.796,462.597 659.463,460.93 660.5,459.5 Z"/></g>
<g><path style="opacity:1" fill="#12c575" d="M 658.5,465.5 C 658.88,467.698 658.213,469.365 656.5,470.5C 656.796,468.597 657.463,466.93 658.5,465.5 Z"/></g>
<g><path style="opacity:0.973" fill="#0ac879" d="M 558.5,471.5 C 558.59,474.152 557.924,476.485 556.5,478.5C 556.41,475.848 557.076,473.515 558.5,471.5 Z"/></g>
<g><path style="opacity:1" fill="#0cc776" d="M 550.5,502.5 C 550.741,504.898 550.074,506.898 548.5,508.5C 548.595,506.214 549.262,504.214 550.5,502.5 Z"/></g>
<g><path style="opacity:0.878" fill="#09bf7d" d="M 544.5,525.5 C 544.264,528.609 544.597,531.609 545.5,534.5C 544.235,533.486 543.569,531.986 543.5,530C 543.508,528.293 543.842,526.793 544.5,525.5 Z"/></g>
</svg>
